<svg xmlns="http://www.w3.org/2000/svg"  viewBox="0 0 24 24" width="24px" height="24px" image-rendering="auto" shape-rendering="auto"><g id="g1760" fill="#494949" stroke="#242d3c" stroke-width=".959" transform="translate(-20.14 -364.81) scale(1.0424)"><path id="path1988" fill="#494949" stroke="none" d="m385.05 6.0215v3.9121h-2.8516v3.9102h-1.3242v1h1.3242v2e-3h3.8516v-2e-3h1.8535v2e-3h3.9082v-2e-3h4.1777v-1h-1.3262v-6.9512h-3.8516v1.7383h-1.9102v-2.6094zm1 1h1.8535v6.8203h-1.8535zm5.7617 0.86914h1.8535v5.9512h-1.8535v-5.2109z" color="#000" color-rendering="auto" shape-rendering="auto" transform="translate(-341.8 349.97) scale(.95932)" style="font-feature-settings:normal;font-variant-alternates:normal;font-variant-caps:normal;font-variant-east-asian:normal;font-variant-ligatures:normal;font-variant-numeric:normal;font-variant-position:normal;font-variation-settings:normal;inline-size:0;isolation:auto;mix-blend-mode:normal;shape-margin:0;shape-padding:0;solid-color:#000;text-decoration-color:#000;text-decoration-line:none;text-decoration-style:solid;text-indent:0;text-orientation:mixed;text-transform:none;white-space:normal" dominant-baseline="auto" image-rendering="auto" paint-order="stroke fill markers" stop-color="#000"/><path id="path2056" fill="#494949" stroke="none" d="m73.113 81.264v14.469h8.5703v2.1309h-3.7832v1h11.428v-1h-3.7852v-2.1309h8.5703v-14.469zm1.002 0.99805h19v12.471h-19zm8.5703 13.473h1.8574v2.1289h-1.8574z" color="#000" color-rendering="auto" shape-rendering="auto" transform="translate(-49.379 275.08) scale(.95932)" style="font-feature-settings:normal;font-variant-alternates:normal;font-variant-caps:normal;font-variant-east-asian:normal;font-variant-ligatures:normal;font-variant-numeric:normal;font-variant-position:normal;font-variation-settings:normal;inline-size:0;isolation:auto;mix-blend-mode:normal;shape-margin:0;shape-padding:0;solid-color:#000;text-decoration-color:#000;text-decoration-line:none;text-decoration-style:solid;text-indent:0;text-orientation:mixed;text-transform:none;white-space:normal" dominant-baseline="auto" image-rendering="auto" paint-order="stroke fill markers" stop-color="#000"/></g></svg>